<?xml version="1.0" encoding="utf-8"?>
<!-- Generator: Adobe Illustrator 24.3.0, SVG Export Plug-In . SVG Version: 6.00 Build 0)  -->
<svg version="1.1" id="Слой_1" xmlns="http://www.w3.org/2000/svg" xmlns:xlink="http://www.w3.org/1999/xlink" x="0px" y="0px"
	 viewBox="0 0 198 198" style="enable-background:new 0 0 198 198;" xml:space="preserve">
<style type="text/css">
	.st0{fill:#4C0556;}
	.st1{fill:#FFFFFF;stroke:#000000;stroke-miterlimit:10;}
	.st2{fill:#FFFFFF;}
</style>
<circle class="st0" cx="99" cy="99" r="99"/>
<path class="st1" d="M68.5,79.5"/>
<path class="st1" d="M-185.3,17.4"/>
<path class="st1" d="M-183.7,8.3"/>
<path class="st1" d="M-175.1,20.5"/>
<path class="st2" d="M172.4,151.8c-4.6-1.6-8.3-5.2-10.8-9.4c-2.5-4.2-4.1-8.8-5.6-13.4c-2.1-6.5-4.3-13.4-3.8-20.3
	c0.5-6.5,2.1-12.7,2.1-19.3c0-36.5-29.5-66-66-66s-66,29.5-66,66c0,28.9,19.6,55.2,47.4,63.3c7.1,2.1,14.8,2.9,22.2,3.4
	c10.4,0.6,20.4-3.4,30.4-5.6c9.5-2.1,19.3-2.7,29-1.7c7.1,0.7,14.1,2.2,20.9,4.1c1.2,0.3,2.7,1,3.6,1.9
	C175.1,153.1,174,152.4,172.4,151.8z"/>
<rect x="78.7" y="83.1" class="st0" width="11.5" height="9.7"/>
<rect x="95.6" y="83.1" class="st0" width="11.5" height="9.7"/>
<rect x="61" y="83.1" class="st0" width="11.5" height="9.7"/>
</svg>
